<?xml version="1.0" encoding="UTF-8"?>
<svg width="512" height="512" viewBox="0 0 512 512" fill="none" xmlns="http://www.w3.org/2000/svg">
  <defs>
    <radialGradient id="bg" cx="50%" cy="50%" r="50%">
      <stop offset="0%" style="stop-color:#1a1a2e;stop-opacity:1" />
      <stop offset="100%" style="stop-color:#0f0f1a;stop-opacity:1" />
    </radialGradient>
    <linearGradient id="slash" x1="0%" y1="0%" x2="100%" y2="100%">
      <stop offset="0%" style="stop-color:#60a5fa;stop-opacity:1" />
      <stop offset="50%" style="stop-color:#3b82f6;stop-opacity:1" />
      <stop offset="100%" style="stop-color:#1e40af;stop-opacity:1" />
    </linearGradient>
    <radialGradient id="glow" cx="50%" cy="50%" r="50%">
      <stop offset="0%" style="stop-color:#ffffff;stop-opacity:1" />
      <stop offset="20%" style="stop-color:#60a5fa;stop-opacity:0.8" />
      <stop offset="60%" style="stop-color:#1e40af;stop-opacity:0.3" />
      <stop offset="100%" style="stop-color:#0f0f1a;stop-opacity:0" />
    </radialGradient>
    <radialGradient id="greenGlow" cx="50%" cy="50%" r="50%">
      <stop offset="0%" style="stop-color:#ffffff;stop-opacity:1" />
      <stop offset="20%" style="stop-color:#22c55e;stop-opacity:0.8" />
      <stop offset="60%" style="stop-color:#16a34a;stop-opacity:0.3" />
      <stop offset="100%" style="stop-color:#0f0f1a;stop-opacity:0" />
    </radialGradient>
    <filter id="dropShadow">
      <feDropShadow dx="0" dy="0" stdDeviation="4" flood-color="#60a5fa" flood-opacity="0.6"/>
    </filter>
  </defs>
  
  <!-- Background -->
  <rect width="512" height="512" rx="64" fill="url(#bg)"/>
  
  <!-- Network nodes -->
  <circle cx="150" cy="120" r="8" fill="url(#glow)" filter="url(#dropShadow)"/>
  <circle cx="280" cy="80" r="6" fill="url(#glow)"/>
  <circle cx="380" cy="140" r="7" fill="url(#glow)"/>
  <circle cx="320" cy="200" r="5" fill="url(#glow)"/>
  <circle cx="180" cy="250" r="6" fill="url(#glow)"/>
  <circle cx="420" cy="280" r="8" fill="url(#glow)" filter="url(#dropShadow)"/>
  <circle cx="120" cy="320" r="7" fill="url(#glow)"/>
  <circle cx="350" cy="380" r="6" fill="url(#glow)"/>
  <circle cx="200" cy="420" r="5" fill="url(#glow)"/>
  
  <!-- Green tech nodes -->
  <circle cx="100" cy="180" r="12" fill="url(#greenGlow)" filter="url(#dropShadow)"/>
  <circle cx="300" cy="320" r="10" fill="url(#greenGlow)" filter="url(#dropShadow)"/>
  
  <!-- Network connections -->
  <path d="M150 120 L280 80" stroke="#60a5fa" stroke-width="1" opacity="0.6"/>
  <path d="M280 80 L380 140" stroke="#60a5fa" stroke-width="1" opacity="0.6"/>
  <path d="M150 120 L100 180" stroke="#22c55e" stroke-width="1.5" opacity="0.8"/>
  <path d="M380 140 L320 200" stroke="#60a5fa" stroke-width="1" opacity="0.6"/>
  <path d="M320 200 L300 320" stroke="#22c55e" stroke-width="1.5" opacity="0.8"/>
  <path d="M180 250 L120 320" stroke="#60a5fa" stroke-width="1" opacity="0.6"/>
  <path d="M420 280 L350 380" stroke="#60a5fa" stroke-width="1" opacity="0.6"/>
  <path d="M300 320 L350 380" stroke="#22c55e" stroke-width="1" opacity="0.7"/>
  <path d="M120 320 L200 420" stroke="#60a5fa" stroke-width="1" opacity="0.6"/>
  
  <!-- Central slash symbol -->
  <g transform="translate(256, 256)">
    <!-- Main slash shape -->
    <path d="M-60 -120 L60 120 L40 140 L-80 -100 Z" fill="url(#slash)" filter="url(#dropShadow)" stroke="#ffffff" stroke-width="2" opacity="0.9"/>
    
    <!-- Inner glow effect -->
    <path d="M-50 -110 L50 110 L35 125 L-65 -95 Z" fill="none" stroke="#60a5fa" stroke-width="1" opacity="0.8"/>
    
    <!-- Tech pattern overlay -->
    <circle cx="0" cy="-60" r="8" fill="#ffffff" opacity="0.9" filter="url(#dropShadow)"/>
    <circle cx="0" cy="0" r="12" fill="#ffffff" opacity="0.9" filter="url(#dropShadow)"/>
    <circle cx="0" cy="60" r="8" fill="#ffffff" opacity="0.9" filter="url(#dropShadow)"/>
  </g>
</svg>
