<?xml version="1.0" encoding="UTF-8"?>
<svg width="512" height="512" viewBox="0 0 512 512" fill="none" xmlns="http://www.w3.org/2000/svg">
  <defs>
    <radialGradient id="bg" cx="50%" cy="50%" r="50%">
      <stop offset="0%" style="stop-color:#1a1a2e;stop-opacity:1" />
      <stop offset="100%" style="stop-color:#0f0f1a;stop-opacity:1" />
    </radialGradient>
    
    <linearGradient id="zGradient" x1="0%" y1="0%" x2="100%" y2="100%">
      <stop offset="0%" style="stop-color:#60a5fa;stop-opacity:1" />
      <stop offset="50%" style="stop-color:#3b82f6;stop-opacity:1" />
      <stop offset="100%" style="stop-color:#1e40af;stop-opacity:1" />
    </linearGradient>
    
    <radialGradient id="whiteGlow" cx="50%" cy="50%" r="50%">
      <stop offset="0%" style="stop-color:#ffffff;stop-opacity:1" />
      <stop offset="30%" style="stop-color:#60a5fa;stop-opacity:0.8" />
      <stop offset="70%" style="stop-color:#1e40af;stop-opacity:0.3" />
      <stop offset="100%" style="stop-color:#0f0f1a;stop-opacity:0" />
    </radialGradient>
    
    <radialGradient id="greenGlow" cx="50%" cy="50%" r="50%">
      <stop offset="0%" style="stop-color:#ffffff;stop-opacity:1" />
      <stop offset="30%" style="stop-color:#22c55e;stop-opacity:0.8" />
      <stop offset="70%" style="stop-color:#16a34a;stop-opacity:0.3" />
      <stop offset="100%" style="stop-color:#0f0f1a;stop-opacity:0" />
    </radialGradient>
    
    <filter id="dropShadow">
      <feDropShadow dx="0" dy="0" stdDeviation="6" flood-color="#60a5fa" flood-opacity="0.8"/>
    </filter>
    
    <filter id="greenShadow">
      <feDropShadow dx="0" dy="0" stdDeviation="4" flood-color="#22c55e" flood-opacity="0.6"/>
    </filter>
  </defs>
  
  <rect width="512" height="512" rx="64" fill="url(#bg)"/>
  
  <g opacity="0.8">
    <circle cx="120" cy="100" r="8" fill="url(#whiteGlow)" filter="url(#dropShadow)"/>
    <circle cx="280" cy="80" r="6" fill="url(#whiteGlow)"/>
    <circle cx="400" cy="120" r="7" fill="url(#whiteGlow)"/>
    <circle cx="350" cy="200" r="5" fill="url(#whiteGlow)"/>
    <circle cx="150" cy="280" r="6" fill="url(#whiteGlow)"/>
    <circle cx="420" cy="300" r="8" fill="url(#whiteGlow)" filter="url(#dropShadow)"/>
    <circle cx="100" cy="350" r="7" fill="url(#whiteGlow)"/>
    <circle cx="380" cy="400" r="6" fill="url(#whiteGlow)"/>
    <circle cx="180" cy="450" r="5" fill="url(#whiteGlow)"/>
    
    <circle cx="80" cy="180" r="12" fill="url(#greenGlow)" filter="url(#greenShadow)"/>
    <circle cx="320" cy="350" r="10" fill="url(#greenGlow)" filter="url(#greenShadow)"/>
    
    <path d="M120 100 L280 80" stroke="#60a5fa" stroke-width="1.5" opacity="0.6"/>
    <path d="M280 80 L400 120" stroke="#60a5fa" stroke-width="1.5" opacity="0.6"/>
    <path d="M120 100 L80 180" stroke="#22c55e" stroke-width="2" opacity="0.8"/>
    <path d="M400 120 L350 200" stroke="#60a5fa" stroke-width="1.5" opacity="0.6"/>
    <path d="M350 200 L320 350" stroke="#22c55e" stroke-width="2" opacity="0.8"/>
    <path d="M150 280 L100 350" stroke="#60a5fa" stroke-width="1.5" opacity="0.6"/>
    <path d="M420 300 L380 400" stroke="#60a5fa" stroke-width="1.5" opacity="0.6"/>
    <path d="M320 350 L380 400" stroke="#22c55e" stroke-width="1.5" opacity="0.7"/>
    <path d="M100 350 L180 450" stroke="#60a5fa" stroke-width="1.5" opacity="0.6"/>
  </g>
  
  <g transform="translate(256, 256)">
    <path d="M-80 -120 L80 -120 L80 -80 L-40 80 L80 80 L80 120 L-80 120 L-80 80 L40 -80 L-80 -80 Z" 
          fill="url(#zGradient)" 
          filter="url(#dropShadow)" 
          stroke="#ffffff" 
          stroke-width="3" 
          opacity="0.95"/>
    
    <path d="M-70 -110 L70 -110 L70 -75 L-35 75 L70 75 L70 110 L-70 110 L-70 75 L35 -75 L-70 -75 Z" 
          fill="none" 
          stroke="#60a5fa" 
          stroke-width="2" 
          opacity="0.8"/>
    
    <circle cx="0" cy="-100" r="6" fill="#ffffff" opacity="0.9" filter="url(#dropShadow)"/>
    <circle cx="0" cy="0" r="8" fill="#ffffff" opacity="0.9" filter="url(#dropShadow)"/>
    <circle cx="0" cy="100" r="6" fill="#ffffff" opacity="0.9" filter="url(#dropShadow)"/>
    
    <circle cx="-40" cy="-60" r="4" fill="#22c55e" opacity="0.8" filter="url(#greenShadow)"/>
    <circle cx="40" cy="60" r="4" fill="#22c55e" opacity="0.8" filter="url(#greenShadow)"/>
  </g>
</svg>
